HIERARCHY
ROOT Hips
{
	OFFSET 32.510799 10.238284 99.521698
	CHANNELS 6 Xposition Yposition Zposition Xrotation Yrotation Zrotation
	JOINT spine
	{
		OFFSET 0.000000 -0.507026 8.817039
		CHANNELS 3 Xrotation Yrotation Zrotation
		JOINT spine1
		{
			OFFSET 0.000000 -0.000001 10.776604
			CHANNELS 3 Xrotation Yrotation Zrotation
			JOINT spine2
			{
				OFFSET 0.000000 -0.000002 10.325897
				CHANNELS 3 Xrotation Yrotation Zrotation
				JOINT Neck
				{
					OFFSET 0.000000 -1.263955 26.511002
					CHANNELS 3 Xrotation Yrotation Zrotation
					JOINT Head
					{
						OFFSET 0.000000 -0.000001 8.009659
						CHANNELS 3 Xrotation Yrotation Zrotation
						End Site
						{
							OFFSET 0.000000 6.393857 19.387894
						}
					}
				}
				JOINT RightShoulder
				{
					OFFSET -4.347950 0.605420 11.151199
					CHANNELS 3 Xrotation Yrotation Zrotation
					JOINT RightArm
					{
						OFFSET 0.000000 -0.000003 14.625793
						CHANNELS 3 Xrotation Yrotation Zrotation
						JOINT RightArmRoll
						{
							OFFSET 0.000000 -0.000001 7.383392
							CHANNELS 3 Xrotation Yrotation Zrotation
							JOINT RightForeArm
							{
								OFFSET 0.000000 -0.000003 21.505203
								CHANNELS 3 Xrotation Yrotation Zrotation
								JOINT RightForeArmRoll
								{
									OFFSET 0.000000 -0.000002 8.285324
									CHANNELS 3 Xrotation Yrotation Zrotation
									JOINT RightHand
									{
										OFFSET 0.000000 -0.000003 16.626801
										CHANNELS 3 Xrotation Yrotation Zrotation
										End Site
										{
											OFFSET 0.000000 0.000000 0.100006
										}
									}
								}
							}
						}
					}
				}
				JOINT LeftShoulder
				{
					OFFSET 4.347950 0.605420 11.151199
					CHANNELS 3 Xrotation Yrotation Zrotation
					JOINT LeftArm
					{
						OFFSET 0.000000 -0.000003 14.625793
						CHANNELS 3 Xrotation Yrotation Zrotation
						JOINT LeftArmRoll
						{
							OFFSET 0.000000 -0.000001 7.383392
							CHANNELS 3 Xrotation Yrotation Zrotation
							JOINT LeftForeArm
							{
								OFFSET 0.000000 -0.000003 21.505203
								CHANNELS 3 Xrotation Yrotation Zrotation
								JOINT LeftForeArmRoll
								{
									OFFSET 0.000000 -0.000002 8.285324
									CHANNELS 3 Xrotation Yrotation Zrotation
									JOINT LeftHand
									{
										OFFSET 0.000000 -0.000003 16.626801
										CHANNELS 3 Xrotation Yrotation Zrotation
										End Site
										{
											OFFSET 0.000000 0.000000 0.100006
										}
									}
								}
							}
						}
					}
				}
			}
		}
	}
	JOINT RightUpLeg
	{
		OFFSET -7.815100 1.202170 -1.433090
		CHANNELS 3 Xrotation Yrotation Zrotation
		JOINT RightUpLegRoll
		{
			OFFSET 0.000000 -0.000003 19.495895
			CHANNELS 3 Xrotation Yrotation Zrotation
			JOINT RightLeg
			{
				OFFSET 0.000000 0.000004 -24.142700
				CHANNELS 3 Xrotation Yrotation Zrotation
				JOINT RightLegRoll
				{
					OFFSET 0.000000 -0.000004 24.221703
					CHANNELS 3 Xrotation Yrotation Zrotation
					JOINT RightFoot
					{
						OFFSET 0.000000 -0.000004 20.160500
						CHANNELS 3 Xrotation Yrotation Zrotation
						JOINT RightToeBase
						{
							OFFSET 0.000000 -0.000002 16.853195
							CHANNELS 3 Xrotation Yrotation Zrotation
							End Site
							{
								OFFSET 0.007143 0.940779 8.161865
							}
						}
					}
				}
			}
		}
	}
	JOINT LeftUpLeg
	{
		OFFSET 7.815102 1.202170 -1.433090
		CHANNELS 3 Xrotation Yrotation Zrotation
		JOINT LeftUpLegRoll
		{
			OFFSET 0.000000 -0.000003 19.496002
			CHANNELS 3 Xrotation Yrotation Zrotation
			JOINT LeftLeg
			{
				OFFSET 0.000000 -0.000004 24.142593
				CHANNELS 3 Xrotation Yrotation Zrotation
				JOINT LeftLegRoll
				{
					OFFSET 0.000000 -0.000004 24.445602
					CHANNELS 3 Xrotation Yrotation Zrotation
					JOINT LeftFoot
					{
						OFFSET 0.000000 -0.000004 19.936600
						CHANNELS 3 Xrotation Yrotation Zrotation
						JOINT LeftToeBase
						{
							OFFSET 0.000000 -0.000003 16.853195
							CHANNELS 3 Xrotation Yrotation Zrotation
							End Site
							{
								OFFSET -0.032013 0.940779 8.161865
							}
						}
					}
				}
			}
		}
	}
}
MOTION
Frames: 7
Frame Time: 0.041667
48.747398 -3.016557 99.333893 4.592917 -0.922785 4.237378 -2.273732 -0.182507 0.159254 -0.544133 -0.369731 0.313003 1.100943 -0.365954 0.317405 21.749643 4.706049 0.284581 3.348854 0.269178 0.541180 -12.563151 -61.651521 -14.964219 -40.330017 -121.099869 -35.386862 0.000000 0.000004 0.000000 8.606573 -18.312968 1.383619 0.000003 0.000003 -3.006880 -5.000161 -7.999112 0.000129 -9.902609 61.757560 11.876744 -30.966804 116.046089 27.016707 0.000000 0.000006 -0.000001 9.246670 13.120752 -0.644942 0.000000 -0.000008 3.000000 -5.000206 7.998701 -0.000150 -14.354252 179.343173 -1.814116 -179.999991 0.000005 -1.021996 162.183580 -1.990804 -1.058661 -0.000005 0.000001 0.441307 72.726324 7.732905 -0.568182 25.462132 -7.351005 0.007020 -14.118937 -179.661528 4.098714 -0.000004 -0.000004 -0.924209 -16.622418 2.480007 0.970148 -0.000004 0.000002 -0.255671 71.105165 -6.869208 -2.057365 25.911415 7.345477 -0.062736 
48.723999 -3.034347 99.307892 4.640701 -0.900073 4.216958 -2.263663 -0.189144 0.164265 -0.523965 -0.383132 0.322855 1.121104 -0.379238 0.327413 21.708455 4.714477 0.281491 3.305233 0.269158 0.536821 -12.541011 -61.618114 -14.937180 -40.340740 -121.153991 -35.333996 0.000000 0.000004 0.000000 8.667578 -18.237776 1.379645 0.000002 0.000003 -3.006880 -5.000162 -7.999109 0.000130 -9.867415 61.738544 11.834823 -30.950316 116.078710 27.032757 0.000001 0.000007 -0.000001 9.314115 13.123157 -0.652110 -0.000003 -0.000009 3.000001 -5.000208 7.998702 -0.000149 -14.560942 179.285704 -1.846906 -179.999991 0.000005 -1.020999 161.943048 -1.962422 -1.069642 -0.000005 -0.000000 0.444948 72.807405 7.729667 -0.570078 25.462134 -7.351004 0.007020 -14.377190 -179.694859 4.050433 -0.000003 -0.000005 -0.924149 -16.974574 2.502468 0.988417 -0.000006 0.000002 -0.262423 71.222242 -6.868847 -2.047886 25.938390 7.345482 -0.065816 
48.727001 -2.989386 99.282303 4.686431 -0.877958 4.195469 -2.253474 -0.195699 0.169521 -0.503538 -0.396369 0.333202 1.141537 -0.392355 0.337915 21.669982 4.722923 0.278329 3.260943 0.269020 0.532487 -12.518370 -61.584141 -14.909545 -40.349298 -121.208455 -35.277951 -0.000001 0.000004 -0.000000 8.728423 -18.162093 1.375326 -0.000000 0.000005 -3.006881 -5.000161 -7.999111 0.000130 -9.829411 61.720724 11.789710 -30.933739 116.110183 27.047771 -0.000001 0.000008 -0.000000 9.380589 13.125382 -0.659160 -0.000003 -0.000008 3.000002 -5.000210 7.998702 -0.000150 -14.762959 179.227360 -1.880002 -179.999991 0.000005 -1.020002 161.707228 -1.931289 -1.080309 -0.000005 0.000000 0.448433 72.886246 7.726443 -0.571512 25.462131 -7.351003 0.007020 -14.630950 -179.729079 4.003813 -0.000004 -0.000004 -0.924121 -17.323436 2.524387 1.007104 -0.000006 0.000002 -0.269134 71.338751 -6.868480 -2.038443 25.965254 7.345484 -0.068861 
48.735699 -2.960593 99.245399 4.730697 -0.856271 4.173208 -2.243184 -0.202194 0.174947 -0.482933 -0.409489 0.343897 1.162139 -0.405351 0.348765 21.633613 4.731384 0.275101 3.216193 0.268801 0.528169 -12.495497 -61.549881 -14.881616 -40.357074 -121.262618 -35.220557 0.000001 0.000004 0.000000 8.789166 -18.085824 1.370672 0.000000 0.000004 -3.006879 -5.000161 -7.999114 0.000130 -9.789484 61.703745 11.742397 -30.916609 116.141520 27.061442 0.000000 0.000007 -0.000001 9.446378 13.127416 -0.666106 -0.000001 -0.000009 3.000001 -5.000209 7.998702 -0.000150 -14.961698 179.168184 -1.913141 -179.999991 0.000005 -1.017994 161.474838 -1.900238 -1.090603 -0.000005 0.000000 0.451808 72.963550 7.723147 -0.572545 25.462132 -7.351005 0.007021 -14.881514 -179.762246 3.957980 -0.000004 -0.000004 -0.924117 -17.670113 2.545876 1.026168 -0.000006 0.000002 -0.275818 71.454700 -6.868108 -2.029039 25.992034 7.345481 -0.071870 
48.726002 -2.931496 99.219597 4.774146 -0.834845 4.150513 -2.232855 -0.208654 0.180470 -0.462226 -0.422539 0.354795 1.182852 -0.418273 0.359818 21.598352 4.739867 0.271840 3.171185 0.268540 0.523860 -12.472412 -61.515334 -14.853433 -40.364417 -121.316591 -35.162350 0.000002 0.000004 0.000000 8.849828 -18.009459 1.365796 0.000001 0.000006 -3.006880 -5.000161 -7.999115 0.000130 -9.748457 61.687236 11.693844 -30.900175 116.171901 27.075497 -0.000001 0.000006 -0.000001 9.511789 13.129346 -0.673010 -0.000001 -0.000008 3.000001 -5.000206 7.998703 -0.000150 -15.158461 179.109116 -1.946334 -179.999991 0.000005 -1.016997 161.244360 -1.868310 -1.100288 -0.000005 0.000000 0.455120 73.039830 7.719924 -0.573391 25.462136 -7.351005 0.007020 -15.130278 -179.796315 3.913118 -0.000003 -0.000005 -0.924126 -18.015495 2.567049 1.045564 -0.000006 0.000002 -0.282486 71.570410 -6.867723 -2.019650 26.018697 7.345483 -0.074865 
48.653099 -3.111546 99.225189 4.817396 -0.813509 4.127669 -2.222506 -0.215104 0.186021 -0.441491 -0.435565 0.365753 1.203585 -0.431172 0.370927 21.563290 4.748346 0.268590 3.126113 0.268274 0.519553 -12.449386 -61.480787 -14.825303 -40.370680 -121.371328 -35.102760 0.000002 0.000004 0.000000 8.910433 -17.933001 1.360719 0.000005 0.000004 -3.006881 -5.000161 -7.999112 0.000130 -9.707222 61.670939 11.645055 -30.883585 116.202241 27.089307 0.000000 0.000006 -0.000001 9.577104 13.131261 -0.679918 -0.000001 -0.000008 3.000002 -5.000210 7.998703 -0.000149 -15.354851 179.049188 -1.979072 -179.999991 0.000005 -1.015999 161.014360 -1.836424 -1.109692 -0.000004 0.000000 0.458415 73.115939 7.716682 -0.574222 25.462134 -7.351004 0.007020 -15.378649 -179.830316 3.868606 -0.000004 -0.000005 -0.924139 -18.360594 2.588047 1.065266 -0.000007 0.000002 -0.289149 71.686196 -6.867281 -2.010250 26.045475 7.345484 -0.077878 
48.656399 -3.046094 99.193497 4.861056 -0.792096 4.105003 -2.212188 -0.221569 0.191526 -0.420808 -0.448615 0.376622 1.224267 -0.444095 0.381950 21.527727 4.756834 0.265357 3.081165 0.268039 0.515243 -12.426502 -61.446335 -14.797332 -40.378043 -121.425286 -35.044580 0.000001 0.000004 0.000000 8.971024 -17.856648 1.355508 -0.000001 0.000005 -3.006880 -5.000165 -7.999110 0.000129 -9.666560 61.654267 11.596927 -30.866199 116.233482 27.102409 0.000000 0.000007 -0.000001 9.642612 13.133253 -0.686843 0.000002 -0.000009 3.000001 -5.000208 7.998702 -0.000150 -15.552165 178.989397 -2.011340 -179.999991 0.000005 -1.014005 160.783391 -1.804593 -1.118899 -0.000005 0.000000 0.461743 73.192533 7.713442 -0.575083 25.462132 -7.351006 0.007021 -15.627929 -179.864221 3.824105 -0.000005 -0.000004 -0.924145 -18.706307 2.608982 1.085238 -0.000007 0.000002 -0.295821 71.801967 -6.866904 -2.000763 26.072242 7.345475 -0.080888 
